<?xml version="1.0" standalone="no"?>
<!DOCTYPE svg PUBLIC "-//W3C//DTD SVG 1.1//EN" "http://www.w3.org/Graphics/SVG/1.1/DTD/svg11.dtd">
<svg t="1712824686241"
     class="icon"
     viewBox="0 0 1206 1024"
     version="1.1"
     xmlns="http://www.w3.org/2000/svg"
     p-id="11150"
     xmlns:xlink="http://www.w3.org/1999/xlink"
     width="235.546875"
     height="200">
    <path
        d="M594.74705908 298.80588271a37.05882364 37.05882364 0 0 1-52.88823544-51.51176542c-2.7 3.54705908-2.96470547 4.18235273-3.54705909 5.4 0.95294092-2.11764727 0.95294092-2.11764727 6.88235274-9.42352911 1.05882363-1.05882363 2.22352911-2.06470547 3.38823544-2.96470547l21.01764727-20.91176542a37.05882364 37.05882364 0 0 1 1.21764727-1.16470547l68.4-67.9764709A281.96470547 281.96470547 0 0 1 839.1764709 67.8235291c75.54705908 0 146.7 29.38235273 200.06470547 82.53529453a279.37058818 279.37058818 0 0 1 82.95882363 199.27058819 279.4764709 279.4764709 0 0 1-82.95882364 199.37647089l-380.91176454 379.05882276a85.44705908 85.44705908 0 0 1-61.41176455 24.61764726c-24.88235273 0-47.91176455-9.05294092-63.9-24.88235273L151.84117636 549.00588271A279.52941182 279.52941182 0 0 1 68.72352911 349.47058818c0-75.1764709 29.64705908-146.11764727 83.11764725-199.27058818a281.80588271 281.80588271 0 0 1 343.37647091-42.88235273 24.67058818 24.67058818 0 0 1 4.9235291 3.44117636 36.68823545 36.68823545 0 0 1 7.57058818 49.34117637 37.05882364 37.05882364 0 0 1-50.02941182 11.17058818 207.74117637 207.74117637 0 0 0-253.58823544 31.5A205.35882364 205.35882364 0 0 0 142.84117636 349.47058818c0 55.53529453 21.70588271 107.5235291 61.25294093 146.85882364l381.17647089 378.74117636c1.69411729 1.69411729 5.98235273 3.38823545 11.64705909 3.38823545 4.65882363 0 7.04117636-1.00588271 9.37058818-3.28235274l380.75294091-378.84705907a205.41176455 205.41176455 0 0 0 61.09411817-146.80588272c0-55.48235273-21.6-107.47058818-61.14705908-146.75294092a207.68823545 207.68823545 0 0 0-147.70588272-60.88235273 207.9 207.9 0 0 0-147.81176455 60.88235273l-69.56470547 69.14117637a37.05882364 37.05882364 0 0 1-1.16470634 1.11176455l-22.9764709 22.81764726a37.37647089 37.37647089 0 0 1-2.43529365 2.22352911l-0.58235274 0.68823545z"
        fill="#515151"
        p-id="11151"></path>
</svg>