<?xml version="1.0" standalone="no"?><!DOCTYPE svg PUBLIC "-//W3C//DTD SVG 1.1//EN" "http://www.w3.org/Graphics/SVG/1.1/DTD/svg11.dtd"><svg t="1713162002315" class="icon" viewBox="0 0 1024 1024" version="1.1" xmlns="http://www.w3.org/2000/svg" p-id="2671" xmlns:xlink="http://www.w3.org/1999/xlink" width="200" height="200"><path d="M512 0C229.205333 0 0 229.205333 0 512s229.205333 512 512 512 512-229.205333 512-512S794.794667 0 512 0z m256 512.512a35.968 35.968 0 0 1-36.010667 35.968h-183.466666v182.528a35.968 35.968 0 1 1-72.021334 0v-182.528H292.010667a35.968 35.968 0 1 1 0-72.021333l184.490666 0.042666v-183.466666a35.968 35.968 0 1 1 72.021334 0v183.466666h183.466666c19.925333 0 36.010667 16.085333 36.010667 36.010667z" fill="#000000" opacity=".65" p-id="2672"></path></svg>